<svg version="1.1" xmlns="http://www.w3.org/2000/svg" xmlns:xlink="http://www.w3.org/1999/xlink" xmlns:i="http://ns.adobe.com/AdobeIllustrator/10.0/" xmlns:sketch="http://www.bohemiancoding.com/sketch/ns" height="100%" width="100%" x="0px" y="0px" viewBox="0 0 640 480" xml:space="preserve" preserveAspectRatio="xMidYMid meet" class=""><defs><linearGradient id="textGradient2707590584"><stop offset="0.05" stop-color="#B68648" /><stop offset="0.95" stop-color="#FBF3A3" /></linearGradient></defs><defs><linearGradient id="iconGradient2707590584"><stop offset="0.05" stop-color="#B68648" /><stop offset="0.95" stop-color="#FBF3A3" /></linearGradient></defs><rect x="0px" y="0px" width="100%" height="100%" fill="none"/><g class="logo-container-box logoContainerBox" transform="scale(0.99) translate(19.344429555565398,2.4242500536369676)"><g class="containerBody" transform="scale(1.0893914530369662) translate(8.226978397964615,-19.693531918079287)" ><g class="sampleIconBox" transform="scale(1) translate(0,0)"><g class="sampleIcons_1" transform="scale(1.0949996031762608) translate(67.72778921127318,170.826434135437)" fill="url(#iconGradient2707590584)"><g><path fill-rule="evenodd" clip-rule="evenodd" d="M56.809,28.396c5.314,0,9.66-4.343,9.66-9.661c0-5.392-4.346-9.735-9.66-9.735   c-3.896,0-7.34,2.321-8.838,5.691c-0.599,1.198-0.898,2.621-0.898,4.044c0,1.422,0.299,2.77,0.898,4.043   C49.468,26.074,52.912,28.396,56.809,28.396z M68.439,66.737c1.287-3.343,2.109-6.596,3.402-10.109   c-4.418,0-6.973-0.146-11.33-0.031c-3.445,0-4.902,1.977-6.025,4.374c-2.17,5.69-4.343,11.456-6.516,17.147   c-1.085,2.968-2.278,5.981-3.371,8.952h11.947c2.398-7.02,4.762-13.554,7.562-20.333H68.439z M94.893,53.172   c-0.311-0.77-0.664-1.52-1.037-2.26c-0.223-0.444-1.34-1.927-1.254-2.373c0.9-4.643,1.93-9.307,2.828-13.95   c0.756-3.659-0.803-5.954-2.973-6.853c-2.846-1.198-4.572-1.886-7.342-3.084c-1.199-0.524-2.398-1.049-3.67-1.572   c-3.67-1.798-6.143-2.282-9.811,0.224c-6.891,4.343-14.584,9.294-21.474,13.713c0.9-2.396,2.298-5.325,3.199-7.723   c-1.873-0.672-3.516-1.421-5.389-2.17c-0.299-0.15-0.599-0.225-0.898-0.375l-0.149,0.375c-2.138,4.518-4.911,9.987-6.56,14.479   c-1.092,3.415,2.628,6.088,5.994,4.999c0.075,0,10.525-4.801,14.792-6.673c4.793,5.466,9.51,11.008,14.301,16.475   c-2.395,1.497-2.926,1.913-4.041,5.316c-2.965,8.451-5.93,16.902-8.895,25.352H74.98l7.131-20.083   c0.748,0.075,2.18,0.199,3.004,0.199c2.367,0,4.678,0.065,6.824-1.118C96.557,63.523,96.598,57.445,94.893,53.172z M90.281,54.306   h-7.49l2.324-12.356l0.373-1.871l-0.373-0.524l-5.244-7.49l5.244,1.274l2.77,0.599l-3.508,19.329l5.914,0.008L90.281,54.306z    M43.104,55.879c1.573,0.225,3.22,0.523,4.867,0.824c0.697,0.115,1.35,0.23,2.026,0.348l2.269-7.548   c-1.597-0.353-31.729-6.375-45.482-9.127l-2.183,7.221c2.719,0.642,4.846,1.173,7.575,1.841c-0.824,0.524-1.571,1.124-2.394,1.647   c1.796,2.021,3.518,4.043,5.316,6.066c3.07-3.146,6.665-4.568,10.784-4.195c7.338,1.199,12.729,5.317,12.58,13.854   c0.133,7.967-7.587,13.511-13.479,13.703c-3.71-0.043-7.113-2.171-10.109-4.194c-1.871,1.424-3.744,2.848-5.616,4.194   c3.295,4.345,8.088,7.265,16.249,7.189c13.287-1.344,19.276-9.361,20.519-20.518C46.53,62.438,45.051,59.398,43.104,55.879z"></path></g></g></g><g class="sampleTexts_1" transform="scale(1) translate(0.000006103515630684342,-0.6299972534179688)"><g class="logo--name svgLogoName_1 logoNameBox" transform="scale(1) translate(192.8800000190735,228.72000122070312)" fill="url(#textGradient2707590584)"><path d="M19.80-41.16L19.80-41.16Q24.96-41.16 28.80-38.91L28.80-38.91L28.80-38.91Q32.64-36.66 34.74-32.49L34.74-32.49L34.74-32.49Q36.84-28.32 36.84-22.68L36.84-22.68L36.84-18.48L36.84-18.48Q36.84-12.84 34.74-8.67L34.74-8.67L34.74-8.67Q32.64-4.50 28.80-2.25L28.80-2.25L28.80-2.25Q24.96 0 19.80 0L19.80 0L5.52 0L5.52-41.16L19.80-41.16ZM19.80-35.82L11.40-35.82L11.40-5.34L19.80-5.34L19.80-5.34Q25.14-5.34 28.05-8.67L28.05-8.67L28.05-8.67Q30.96-12 30.96-18.48L30.96-18.48L30.96-22.68L30.96-22.68Q30.96-29.04 28.11-32.43L28.11-32.43L28.11-32.43Q25.26-35.82 19.80-35.82L19.80-35.82ZM71.50-30.66L60.04-1.20L60.04-1.20Q58 3.84 56.26 6.51L56.26 6.51L56.26 6.51Q54.52 9.18 52.72 10.17L52.72 10.17L52.72 10.17Q50.92 11.16 48.52 11.16L48.52 11.16L48.52 11.16Q46.30 11.16 44.32 10.32L44.32 10.32L44.32 5.70L44.32 5.70Q46.30 6.54 47.32 6.54L47.32 6.54L47.32 6.54Q49.78 6.54 51.43 4.89L51.43 4.89L51.43 4.89Q53.08 3.24 54.16-0.30L54.16-0.30L42.22-30.66L48.22-30.66L57.04-8.04L57.28-8.04L65.98-30.66L71.50-30.66ZM106.28-36.18L106.28-36.18Q106.28-33.12 104.66-31.05L104.66-31.05L104.66-31.05Q103.04-28.98 100.16-28.38L100.16-28.38L100.04-28.20L100.04-28.20Q103.04-25.56 103.04-21.60L103.04-21.60L103.04-21.60Q103.04-17.28 99.80-14.64L99.80-14.64L99.80-14.64Q96.56-12 90.98-12L90.98-12L86.90-12L86.90-12Q85.10-12 83.90-11.07L83.90-11.07L83.90-11.07Q82.70-10.14 82.70-8.70L82.70-8.70L82.70-8.70Q82.70-7.26 83.84-6.42L83.84-6.42L83.84-6.42Q84.98-5.58 86.90-5.58L86.90-5.58L98.48-5.58L98.48-5.58Q102.02-5.58 104.15-3.36L104.15-3.36L104.15-3.36Q106.28-1.14 106.28 2.28L106.28 2.28L106.28 2.28Q106.28 6.36 103.19 8.82L103.19 8.82L103.19 8.82Q100.10 11.28 94.88 11.28L94.88 11.28L82.82 11.28L82.82 11.28Q80.78 11.28 79.07 10.20L79.07 10.20L79.07 10.20Q77.36 9.12 76.37 7.47L76.37 7.47L76.37 7.47Q75.38 5.82 75.38 4.08L75.38 4.08L75.38 4.08Q75.38 1.56 76.61-0.30L76.61-0.30L76.61-0.30Q77.84-2.16 79.88-3.06L79.88-3.06L79.88-3.06Q77.12-4.74 77.12-8.04L77.12-8.04L77.12-8.04Q77.12-10.20 78.38-11.76L78.38-11.76L78.38-11.76Q79.64-13.32 81.92-14.10L81.92-14.10L81.92-14.10Q77.90-16.32 77.90-21.60L77.90-21.60L77.90-21.60Q77.90-26.04 81.17-28.65L81.17-28.65L81.17-28.65Q84.44-31.26 90.26-31.26L90.26-31.26L90.50-31.26L90.50-31.26Q93.86-31.26 96.62-30.24L96.62-30.24L96.62-30.24Q100.88-32.34 101.48-36.18L101.48-36.18L106.28-36.18ZM90.44-26.76L90.44-26.76Q87.26-26.76 85.37-25.53L85.37-25.53L85.37-25.53Q83.48-24.30 83.48-21.60L83.48-21.60L83.48-21.60Q83.48-18.90 85.37-17.70L85.37-17.70L85.37-17.70Q87.26-16.50 90.44-16.50L90.44-16.50L90.44-16.50Q93.62-16.50 95.54-17.70L95.54-17.70L95.54-17.70Q97.46-18.90 97.46-21.60L97.46-21.60L97.46-21.60Q97.46-24.30 95.54-25.53L95.54-25.53L95.54-25.53Q93.62-26.76 90.44-26.76L90.44-26.76ZM96.80-0.18L84.44-0.18L84.44-0.18Q83-0.18 81.98 0.84L81.98 0.84L81.98 0.84Q80.96 1.86 80.96 3.30L80.96 3.30L80.96 3.30Q80.96 4.74 81.98 5.76L81.98 5.76L81.98 5.76Q83 6.78 84.44 6.78L84.44 6.78L96.02 6.78L96.02 6.78Q97.94 6.78 99.32 5.67L99.32 5.67L99.32 5.67Q100.70 4.56 100.70 3.12L100.70 3.12L100.70 3.12Q100.70 1.62 99.68 0.72L99.68 0.72L99.68 0.72Q98.66-0.18 96.80-0.18L96.80-0.18ZM113.52-43.20L119.16-43.20L119.16 0L113.52 0L113.52-43.20ZM142.60-31.26L142.60-31.26Q149.02-31.26 152.86-27.30L152.86-27.30L152.86-27.30Q156.70-23.34 156.70-16.44L156.70-16.44L156.70-14.22L156.70-14.22Q156.70-7.32 152.92-3.36L152.92-3.36L152.92-3.36Q149.14 0.60 142.60 0.60L142.60 0.60L142.60 0.60Q136.06 0.60 132.28-3.36L132.28-3.36L132.28-3.36Q128.50-7.32 128.50-14.22L128.50-14.22L128.50-16.44L128.50-16.44Q128.50-23.34 132.34-27.30L132.34-27.30L132.34-27.30Q136.18-31.26 142.60-31.26L142.60-31.26ZM142.60-26.76L142.60-26.76Q138.58-26.76 136.36-24L136.36-24L136.36-24Q134.14-21.24 134.14-15.90L134.14-15.90L134.14-14.76L134.14-14.76Q134.14-9.54 136.33-6.72L136.33-6.72L136.33-6.72Q138.52-3.90 142.60-3.90L142.60-3.90L142.60-3.90Q146.56-3.90 148.81-6.69L148.81-6.69L148.81-6.69Q151.06-9.48 151.06-14.76L151.06-14.76L151.06-15.90L151.06-15.90Q151.06-21.12 148.87-23.94L148.87-23.94L148.87-23.94Q146.68-26.76 142.60-26.76L142.60-26.76ZM172.40-40.44L172.40-30.66L179.54-30.66L179.54-26.16L172.40-26.16L172.40-7.86L172.40-7.86Q172.40-5.70 173.24-4.74L173.24-4.74L173.24-4.74Q174.08-3.78 175.82-3.78L175.82-3.78L175.82-3.78Q177.38-3.78 179.54-4.68L179.54-4.68L179.54-0.48L179.54-0.48Q177.38 0.60 173.96 0.60L173.96 0.60L173.96 0.60Q170.42 0.60 168.59-1.50L168.59-1.50L168.59-1.50Q166.76-3.60 166.76-8.16L166.76-8.16L166.76-26.16L163.40-26.16L163.40-30.66L166.94-30.66L168.86-40.44L172.40-40.44Z"/></g><g id="" class="logo--name svgSloganText_1 sloganBox" transform="scale(1) translate(194.75999989509583,283.9400009155273)" fill="#ffffff"><path d="M3.64 0L18.51 0L18.51-4.84L8.89-4.84L8.89-29.54L3.64-29.54ZM21.89-4.37C21.89-1.66 24.08 0.52 26.83 0.52L31.62 0.52C34.37 0.52 36.56-1.66 36.56-4.37L36.56-7.33L32.03-7.33L32.03-5.46C32.03-4.68 31.41-3.90 30.58-3.90L28.08-3.90C27.25-3.90 26.62-4.68 26.62-5.46L26.62-9.88L36.56-9.88L36.56-17.47C36.56-20.18 34.37-22.41 31.62-22.41L26.83-22.41C24.08-22.41 21.89-20.18 21.89-17.47L21.89-4.37ZM26.62-13.05L26.62-16.43C26.62-17.21 27.25-17.94 28.08-17.94L30.58-17.94C31.41-17.94 32.03-17.21 32.03-16.43L32.03-13.05ZM56.32-17.37C56.32-20.12 54.08-22.41 51.27-22.41L47.22-22.41C44.41-22.41 42.17-20.12 42.17-17.37L42.17-14.20L46.70-14.20L46.70-16.48C46.70-17.21 47.42-17.94 48.20-17.94L50.08-17.94C50.91-17.94 51.48-17.21 51.48-16.48L51.48-15.03C51.48-14.35 51.27-13.78 50.60-13.47L44.10-10.92C42.64-10.35 41.76-9.10 41.76-7.33L41.76-4.47C41.76-1.77 44.04 0.52 46.80 0.52L48.26 0.52C49.87 0.52 50.96-0.42 51.64-1.09L51.90 0L56.32 0ZM51.48-5.67C51.48-4.78 50.70-3.90 49.82-3.90L47.84-3.90C46.96-3.90 46.44-4.68 46.44-5.36L46.44-6.81C46.44-7.44 46.59-7.85 47.22-8.16L50.86-9.67C51.22-9.83 51.43-10.09 51.48-10.09ZM66.98 0L66.98-15.76C66.98-16.74 67.76-17.58 68.69-17.58L71.60-17.58L71.60-22.20L70.20-22.20C68.64-22.20 67.39-21.16 66.87-20.44L66.56-21.89L62.04-21.89L62.04 0ZM79.98 0L79.98-15.96C79.98-16.90 80.70-17.78 81.64-17.78L83.67-17.78C84.50-17.78 85.12-17.06 85.12-16.22L85.12 0L90.06 0L90.06-17.42C90.06-20.18 87.88-22.41 85.12-22.41L83.20-22.41C81.59-22.41 80.39-21.32 79.82-20.59L79.56-21.89L74.98-21.89L74.98 0ZM101.24 0L101.24-21.89L96.30-21.89L96.30 0ZM101.19-25.48L101.19-29.54L96.30-29.54L96.30-25.48ZM112.48 0L112.48-15.96C112.48-16.90 113.20-17.78 114.14-17.78L116.17-17.78C117.00-17.78 117.62-17.06 117.62-16.22L117.62 0L122.56 0L122.56-17.42C122.56-20.18 120.38-22.41 117.62-22.41L115.70-22.41C114.09-22.41 112.89-21.32 112.32-20.59L112.06-21.89L107.48-21.89L107.48 0ZM127.50 6.76C127.50 9.57 129.74 11.80 132.50 11.80L137.23 11.80C140.04 11.80 142.22 9.57 142.22 6.76L142.22 1.92C142.22-0.21 141.02-1.51 138.79-2.34L133.28-4.37C132.60-4.63 132.03-4.89 132.03-5.67C132.03-6.03 132.18-6.34 132.39-6.60C132.55-6.60 132.70-6.55 132.86-6.55L135.93-6.55C138.74-6.55 140.92-8.84 140.92-11.60L140.92-16.80C140.92-17.58 140.56-18.25 140.19-18.51L141.86-18.82L141.86-21.89L132.50-21.89C129.69-21.89 127.50-19.60 127.50-16.85L127.50-11.60C127.50-9.88 128.34-8.42 129.64-7.49C129.06-6.86 128.65-6.03 128.65-5.04C128.65-3.28 129.79-2.50 131.04-1.87L129.74-0.68C128.44 0.57 127.50 1.51 127.50 3.48ZM132.18-15.96C132.18-16.69 132.76-17.42 133.64-17.42L134.78-17.42C135.67-17.42 136.24-16.69 136.24-15.96L136.24-12.01C136.24-11.28 135.67-10.61 134.78-10.61L133.64-10.61C132.76-10.61 132.18-11.28 132.18-12.01ZM133.22 7.33C132.39 7.33 131.72 6.60 131.72 5.77L131.72 2.96C131.72 2.13 132.08 1.77 132.76 1.09L134.06-0.21L136.66 1.20C137.18 1.35 137.54 1.92 137.54 2.44L137.54 5.77C137.54 6.60 136.86 7.33 136.03 7.33ZM156.78 0L161.98 0L161.98-12.84L169.52 0L175.29 0L166.56-15.03L175.08-29.54L169.68-29.54L161.98-16.43L161.98-29.54L156.78-29.54ZM178.67-4.37C178.67-1.66 180.86 0.52 183.56 0.52L188.66 0.52C191.41 0.52 193.60-1.66 193.60-4.37L193.60-17.47C193.60-20.18 191.41-22.41 188.66-22.41L183.56-22.41C180.86-22.41 178.67-20.18 178.67-17.47L178.67-4.37ZM183.40-5.46L183.40-16.43C183.40-17.21 184.03-17.94 184.81-17.94L187.41-17.94C188.24-17.94 188.86-17.21 188.86-16.43L188.86-5.46C188.86-4.68 188.24-3.90 187.41-3.90L184.81-3.90C184.03-3.90 183.40-4.68 183.40-5.46ZM204.26 0L204.26-15.76C204.26-16.74 205.04-17.58 205.97-17.58L208.88-17.58L208.88-22.20L207.48-22.20C205.92-22.20 204.67-21.16 204.15-20.44L203.84-21.89L199.32-21.89L199.32 0ZM212.26-4.37C212.26-1.66 214.45 0.52 217.20 0.52L221.99 0.52C224.74 0.52 226.93-1.66 226.93-4.37L226.93-7.33L222.40-7.33L222.40-5.46C222.40-4.68 221.78-3.90 220.95-3.90L218.45-3.90C217.62-3.90 217.00-4.68 217.00-5.46L217.00-9.88L226.93-9.88L226.93-17.47C226.93-20.18 224.74-22.41 221.99-22.41L217.20-22.41C214.45-22.41 212.26-20.18 212.26-17.47L212.26-4.37ZM217.00-13.05L217.00-16.43C217.00-17.21 217.62-17.94 218.45-17.94L220.95-17.94C221.78-17.94 222.40-17.21 222.40-16.43L222.40-13.05ZM246.69-17.37C246.69-20.12 244.45-22.41 241.64-22.41L237.59-22.41C234.78-22.41 232.54-20.12 232.54-17.37L232.54-14.20L237.07-14.20L237.07-16.48C237.07-17.21 237.80-17.94 238.58-17.94L240.45-17.94C241.28-17.94 241.85-17.21 241.85-16.48L241.85-15.03C241.85-14.35 241.64-13.78 240.97-13.47L234.47-10.92C233.01-10.35 232.13-9.10 232.13-7.33L232.13-4.47C232.13-1.77 234.42 0.52 237.17 0.52L238.63 0.52C240.24 0.52 241.33-0.42 242.01-1.09L242.27 0L246.69 0ZM241.85-5.67C241.85-4.78 241.07-3.90 240.19-3.90L238.21-3.90C237.33-3.90 236.81-4.68 236.81-5.36L236.81-6.81C236.81-7.44 236.96-7.85 237.59-8.16L241.23-9.67C241.59-9.83 241.80-10.09 241.85-10.09ZM257.40 0L257.40-15.96C257.40-16.90 258.13-17.78 259.06-17.78L261.09-17.78C261.92-17.78 262.55-17.06 262.55-16.22L262.55 0L267.49 0L267.49-17.42C267.49-20.18 265.30-22.41 262.55-22.41L260.62-22.41C259.01-22.41 257.82-21.32 257.24-20.59L256.98-21.89L252.41-21.89L252.41 0Z"/></g></g></g></g></svg>