<?xml version="1.0" encoding="UTF-8" standalone="no"?>
<svg
   xmlns:dc="http://purl.org/dc/elements/1.1/"
   xmlns:cc="http://creativecommons.org/ns#"
   xmlns:rdf="http://www.w3.org/1999/02/22-rdf-syntax-ns#"
   xmlns:svg="http://www.w3.org/2000/svg"
   xmlns="http://www.w3.org/2000/svg"
   xmlns:xlink="http://www.w3.org/1999/xlink"
   id="svg870"
   class=""
   preserveAspectRatio="xMidYMid meet"
   xml:space="preserve"
   viewBox="0 0 640 480"
   y="0px"
   x="0px"
   width="100%"
   height="100%"
   version="1.1">
  <metadata
     id="metadata874">
    <rdf:RDF>
      <cc:Work
         rdf:about="">
        <dc:format>image/svg+xml</dc:format>
        <dc:type
           rdf:resource="http://purl.org/dc/dcmitype/StillImage" />
        <dc:title></dc:title>
      </cc:Work>
    </rdf:RDF>
  </metadata>
  <defs
     id="defs838">
    <linearGradient
       id="textGradient2707590584">
      <stop
         id="stop833"
         stop-color="#B68648"
         offset="0.05" />
      <stop
         id="stop835"
         stop-color="#FBF3A3"
         offset="0.95" />
    </linearGradient>
    <linearGradient
       gradientUnits="userSpaceOnUse"
       y2="-77.20844"
       x2="100.457"
       y1="-77.20844"
       x1="3.0885742"
       gradientTransform="scale(1.7872324,0.55952432)"
       id="linearGradient882"
       xlink:href="#textGradient2707590584" />
    <linearGradient
       gradientUnits="userSpaceOnUse"
       y2="-77.20844"
       x2="100.457"
       y1="-77.20844"
       x1="3.0885742"
       gradientTransform="scale(1.7872324,0.55952432)"
       id="linearGradient884"
       xlink:href="#textGradient2707590584" />
    <linearGradient
       xlink:href="#textGradient2707590584"
       id="linearGradient863"
       gradientTransform="scale(0.98031164,1.0200838)"
       x1="-50.534138"
       y1="8.8228045"
       x2="97.851784"
       y2="8.8228045"
       gradientUnits="userSpaceOnUse" />
    <linearGradient
       y2="8.8228045"
       x2="97.851784"
       y1="8.8228045"
       x1="-50.534138"
       gradientTransform="scale(0.98031164,1.0200838)"
       gradientUnits="userSpaceOnUse"
       id="linearGradient930"
       xlink:href="#textGradient2707590584" />
    <linearGradient
       y2="8.8228045"
       x2="97.851784"
       y1="8.8228045"
       x1="-50.534138"
       gradientTransform="scale(0.98031164,1.0200838)"
       gradientUnits="userSpaceOnUse"
       id="linearGradient932"
       xlink:href="#textGradient2707590584" />
  </defs>
  <defs
     id="defs845">
    <linearGradient
       id="iconGradient2707590584">
      <stop
         id="stop840"
         stop-color="#B68648"
         offset="0.05" />
      <stop
         id="stop842"
         stop-color="#FBF3A3"
         offset="0.95" />
    </linearGradient>
  </defs>
  <rect
     id="rect847"
     fill="#4d2d89"
     height="100%"
     width="100%"
     y="0px"
     x="0px" />
  <g
     class="logo--name svgLogoName_1 logoNameBox"
     transform="matrix(1.0784976,0,0,1.0784976,236.04439,258.46983)"
     fill="url(#textGradient2707590584)"
     id="g859"
     style="opacity:1;fill:url(#linearGradient884);stop-opacity:1">
    <path
       d="m 19.8,-41.16 v 0 q 5.16,0 9,2.25 v 0 0 q 3.84,2.25 5.94,6.42 v 0 0 q 2.1,4.17 2.1,9.81 v 0 4.2 0 q 0,5.64 -2.1,9.81 v 0 0 q -2.1,4.17 -5.94,6.42 v 0 0 Q 24.96,0 19.8,0 V 0 H 5.52 v -41.16 z m 0,5.34 h -8.4 v 30.48 h 8.4 v 0 q 5.34,0 8.25,-3.33 v 0 0 q 2.91,-3.33 2.91,-9.81 v 0 -4.2 0 q 0,-6.36 -2.85,-9.75 v 0 0 q -2.85,-3.39 -8.31,-3.39 z m 51.7,5.16 -11.46,29.46 v 0 Q 58,3.84 56.26,6.51 v 0 0 q -1.74,2.67 -3.54,3.66 v 0 0 q -1.8,0.99 -4.2,0.99 v 0 0 q -2.22,0 -4.2,-0.84 v 0 -4.62 0 q 1.98,0.84 3,0.84 v 0 0 q 2.46,0 4.11,-1.65 v 0 0 q 1.65,-1.65 2.73,-5.19 v 0 L 42.22,-30.66 h 6 l 8.82,22.62 h 0.24 l 8.7,-22.62 z m 34.78,-5.52 v 0 q 0,3.06 -1.62,5.13 v 0 0 q -1.62,2.07 -4.5,2.67 v 0 l -0.12,0.18 v 0 q 3,2.64 3,6.6 v 0 0 q 0,4.32 -3.24,6.96 v 0 0 Q 96.56,-12 90.98,-12 v 0 H 86.9 v 0 q -1.8,0 -3,0.93 v 0 0 q -1.2,0.93 -1.2,2.37 v 0 0 q 0,1.44 1.14,2.28 v 0 0 q 1.14,0.84 3.06,0.84 v 0 h 11.58 v 0 q 3.54,0 5.67,2.22 v 0 0 q 2.13,2.22 2.13,5.64 v 0 0 q 0,4.08 -3.09,6.54 v 0 0 q -3.09,2.46 -8.31,2.46 v 0 H 82.82 v 0 q -2.04,0 -3.75,-1.08 v 0 0 Q 77.36,9.12 76.37,7.47 v 0 0 Q 75.38,5.82 75.38,4.08 v 0 0 q 0,-2.52 1.23,-4.38 v 0 0 q 1.23,-1.86 3.27,-2.76 v 0 0 q -2.76,-1.68 -2.76,-4.98 v 0 0 q 0,-2.16 1.26,-3.72 v 0 0 q 1.26,-1.56 3.54,-2.34 v 0 0 q -4.02,-2.22 -4.02,-7.5 v 0 0 q 0,-4.44 3.27,-7.05 v 0 0 q 3.27,-2.61 9.09,-2.61 v 0 h 0.24 v 0 q 3.36,0 6.12,1.02 v 0 0 q 4.26,-2.1 4.86,-5.94 v 0 z m -15.84,9.42 v 0 q -3.18,0 -5.07,1.23 v 0 0 q -1.89,1.23 -1.89,3.93 v 0 0 q 0,2.7 1.89,3.9 v 0 0 q 1.89,1.2 5.07,1.2 v 0 0 q 3.18,0 5.1,-1.2 v 0 0 q 1.92,-1.2 1.92,-3.9 v 0 0 q 0,-2.7 -1.92,-3.93 v 0 0 q -1.92,-1.23 -5.1,-1.23 z M 96.8,-0.18 H 84.44 v 0 q -1.44,0 -2.46,1.02 v 0 0 Q 80.96,1.86 80.96,3.3 v 0 0 q 0,1.44 1.02,2.46 v 0 0 Q 83,6.78 84.44,6.78 v 0 h 11.58 v 0 q 1.92,0 3.3,-1.11 v 0 0 q 1.38,-1.11 1.38,-2.55 v 0 0 q 0,-1.5 -1.02,-2.4 v 0 0 q -1.02,-0.9 -2.88,-0.9 z m 16.72,-43.02 h 5.64 V 0 h -5.64 z m 29.08,11.94 v 0 q 6.42,0 10.26,3.96 v 0 0 q 3.84,3.96 3.84,10.86 v 0 2.22 0 q 0,6.9 -3.78,10.86 v 0 0 Q 149.14,0.6 142.6,0.6 v 0 0 q -6.54,0 -10.32,-3.96 v 0 0 q -3.78,-3.96 -3.78,-10.86 v 0 -2.22 0 q 0,-6.9 3.84,-10.86 v 0 0 q 3.84,-3.96 10.26,-3.96 z m 0,4.5 v 0 q -4.02,0 -6.24,2.76 v 0 0 q -2.22,2.76 -2.22,8.1 v 0 1.14 0 q 0,5.22 2.19,8.04 v 0 0 q 2.19,2.82 6.27,2.82 v 0 0 q 3.96,0 6.21,-2.79 v 0 0 q 2.25,-2.79 2.25,-8.07 v 0 -1.14 0 q 0,-5.22 -2.19,-8.04 v 0 0 q -2.19,-2.82 -6.27,-2.82 z m 29.8,-13.68 v 9.78 h 7.14 v 4.5 h -7.14 v 18.3 0 q 0,2.16 0.84,3.12 v 0 0 q 0.84,0.96 2.58,0.96 v 0 0 q 1.56,0 3.72,-0.9 v 0 4.2 0 q -2.16,1.08 -5.58,1.08 v 0 0 q -3.54,0 -5.37,-2.1 v 0 0 q -1.83,-2.1 -1.83,-6.66 v 0 -18 h -3.36 v -4.5 h 3.54 l 1.92,-9.78 z"
       id="path857"
       style="fill:url(#linearGradient882)" />
  </g>
  <g
     id="g952">
    <g
       transform="matrix(0.84,0,0,0.84,86.581771,50.350564)"
       class="sampleIconBox"
       id="g24"
       style="opacity:1;stop-opacity:1">
      <g
         style="fill:url(#linearGradient863)"
         class="sampleIcons_1"
         transform="matrix(1.0949996,0,0,1.0949996,74.161902,187.05488)"
         id="g22"
         fill="url(#iconGradient3904579687)">
        <g
           style="fill:url(#linearGradient932)"
           id="g20">
          <path
             d="m 56.809,28.396 c 5.314,0 9.66,-4.343 9.66,-9.661 0,-5.392 -4.346,-9.735 -9.66,-9.735 -3.896,0 -7.34,2.321 -8.838,5.691 -0.599,1.198 -0.898,2.621 -0.898,4.044 0,1.422 0.299,2.77 0.898,4.043 1.497,3.296 4.941,5.618 8.838,5.618 z m 11.63,38.341 c 1.287,-3.343 2.109,-6.596 3.402,-10.109 -4.418,0 -6.973,-0.146 -11.33,-0.031 -3.445,0 -4.902,1.977 -6.025,4.374 -2.17,5.69 -4.343,11.456 -6.516,17.147 -1.085,2.968 -2.278,5.981 -3.371,8.952 h 11.947 c 2.398,-7.02 4.762,-13.554 7.562,-20.333 z M 94.893,53.172 c -0.311,-0.77 -0.664,-1.52 -1.037,-2.26 -0.223,-0.444 -1.34,-1.927 -1.254,-2.373 0.9,-4.643 1.93,-9.307 2.828,-13.95 0.756,-3.659 -0.803,-5.954 -2.973,-6.853 -2.846,-1.198 -4.572,-1.886 -7.342,-3.084 -1.199,-0.524 -2.398,-1.049 -3.67,-1.572 -3.67,-1.798 -6.143,-2.282 -9.811,0.224 -6.891,4.343 -14.584,9.294 -21.474,13.713 0.9,-2.396 2.298,-5.325 3.199,-7.723 -1.873,-0.672 -3.516,-1.421 -5.389,-2.17 -0.299,-0.15 -0.599,-0.225 -0.898,-0.375 l -0.149,0.375 c -2.138,4.518 -4.911,9.987 -6.56,14.479 -1.092,3.415 2.628,6.088 5.994,4.999 0.075,0 10.525,-4.801 14.792,-6.673 4.793,5.466 9.51,11.008 14.301,16.475 -2.395,1.497 -2.926,1.913 -4.041,5.316 -2.965,8.451 -5.93,16.902 -8.895,25.352 H 74.98 l 7.131,-20.083 c 0.748,0.075 2.18,0.199 3.004,0.199 2.367,0 4.678,0.065 6.824,-1.118 4.618,-2.547 4.659,-8.625 2.954,-12.898 z m -4.612,1.134 h -7.49 l 2.324,-12.356 0.373,-1.871 -0.373,-0.524 -5.244,-7.49 5.244,1.274 2.77,0.599 -3.508,19.329 5.914,0.008 z M 46.026,67.184 c -165.52379,161.39608 -82.761894,80.69804 0,0 z"
             id="path18"
             style="clip-rule:evenodd;fill:url(#linearGradient930);fill-rule:evenodd" />
        </g>
      </g>
    </g>
    <text
       xml:space="preserve"
       style="font-style:normal;font-weight:normal;font-size:61.0924px;line-height:1.25;font-family:sans-serif;letter-spacing:0px;word-spacing:0px;fill:#e8d68b;fill-opacity:1;stroke:none;stroke-width:1.52731"
       x="134.81288"
       y="287.32181"
       id="text47"
       transform="scale(1.0071072,0.99294296)"><tspan
         id="tspan45"
         x="134.81288"
         y="287.32181"
         style="stroke-width:1.52731">한</tspan></text>
  </g>
  <text
     id="text956"
     y="288.90363"
     x="238.90109"
     style="font-style:normal;font-variant:normal;font-weight:normal;font-stretch:normal;font-size:21.3333px;line-height:1.25;font-family:Kefa;-inkscape-font-specification:'Kefa Normal';font-variant-ligatures:normal;font-variant-caps:normal;font-variant-numeric:normal;font-variant-east-asian:normal;fill:#ffffff;fill-opacity:1;stroke:none"
     xml:space="preserve"><tspan
       y="288.90363"
       x="238.90109"
       id="tspan954">Learning Korean</tspan></text>
</svg>
