<?xml version="1.0" encoding="UTF-8" standalone="no"?>
<svg
   xmlns:dc="http://purl.org/dc/elements/1.1/"
   xmlns:cc="http://creativecommons.org/ns#"
   xmlns:rdf="http://www.w3.org/1999/02/22-rdf-syntax-ns#"
   xmlns:svg="http://www.w3.org/2000/svg"
   xmlns="http://www.w3.org/2000/svg"
   xmlns:xlink="http://www.w3.org/1999/xlink"
   xmlns:sodipodi="http://sodipodi.sourceforge.net/DTD/sodipodi-0.dtd"
   xmlns:inkscape="http://www.inkscape.org/namespaces/inkscape"
   version="1.1"
   height="100%"
   width="100%"
   x="0px"
   y="0px"
   viewBox="0 0 640 480"
   xml:space="preserve"
   preserveAspectRatio="xMidYMid meet"
   class=""
   id="svg1152"
   sodipodi:docname="color_logo.svg">
  <metadata
     id="metadata1156">
    <rdf:RDF>
      <cc:Work
         rdf:about="">
        <dc:format>image/svg+xml</dc:format>
        <dc:type
           rdf:resource="http://purl.org/dc/dcmitype/StillImage" />
      </cc:Work>
    </rdf:RDF>
  </metadata>
  <sodipodi:namedview
     pagecolor="#ffffff"
     bordercolor="#666666"
     inkscape:document-rotation="0"
     borderopacity="1"
     objecttolerance="10"
     gridtolerance="10"
     guidetolerance="10"
     inkscape:pageopacity="0"
     inkscape:pageshadow="2"
     inkscape:window-width="640"
     inkscape:window-height="480"
     id="namedview1154"
     showgrid="false"
     inkscape:snap-global="false" />
  <defs
     id="defs1120">
    <linearGradient
       id="textGradient2707590584">
      <stop
         offset="0.05"
         stop-color="#B68648"
         id="stop1115" />
      <stop
         offset="0.95"
         stop-color="#FBF3A3"
         id="stop1117" />
    </linearGradient>
    <linearGradient
       inkscape:collect="always"
       xlink:href="#iconGradient2707590584"
       id="linearGradient1719"
       gradientTransform="scale(1.0771995,0.92833312)"
       x1="4.2712607"
       y1="9.6947958"
       x2="89.050579"
       y2="9.6947958"
       gradientUnits="userSpaceOnUse" />
    <linearGradient
       inkscape:collect="always"
       xlink:href="#iconGradient2707590584"
       id="linearGradient1721"
       gradientTransform="scale(1.0771995,0.92833312)"
       x1="4.2712607"
       y1="9.6947958"
       x2="89.050579"
       y2="9.6947958"
       gradientUnits="userSpaceOnUse" />
    <linearGradient
       inkscape:collect="always"
       xlink:href="#textGradient2707590584"
       id="linearGradient1725"
       gradientTransform="scale(1.7872324,0.55952432)"
       x1="3.0885742"
       y1="-77.20844"
       x2="100.457"
       y2="-77.20844"
       gradientUnits="userSpaceOnUse" />
    <linearGradient
       inkscape:collect="always"
       xlink:href="#textGradient2707590584"
       id="linearGradient1727"
       gradientTransform="scale(1.7872324,0.55952432)"
       x1="3.0885742"
       y1="-77.20844"
       x2="100.457"
       y2="-77.20844"
       gradientUnits="userSpaceOnUse" />
  </defs>
  <defs
     id="defs1127">
    <linearGradient
       id="iconGradient2707590584">
      <stop
         offset="0.05"
         stop-color="#B68648"
         id="stop1122" />
      <stop
         offset="0.95"
         stop-color="#FBF3A3"
         id="stop1124" />
    </linearGradient>
  </defs>
  <rect
     x="3.0573218"
     y="82.547768"
     width="100%"
     height="100%"
     fill="#4d2d89"
     id="rect1129" />
  <g
     id="g1133"
     style="opacity:1;fill:url(#linearGradient1721);stop-opacity:1"
     transform="matrix(1.1809544,0,0,1.1809544,114.12184,276.14723)">
    <path
       fill-rule="evenodd"
       clip-rule="evenodd"
       d="m 56.809,28.396 c 5.314,0 9.66,-4.343 9.66,-9.661 0,-5.392 -4.346,-9.735 -9.66,-9.735 -3.896,0 -7.34,2.321 -8.838,5.691 -0.599,1.198 -0.898,2.621 -0.898,4.044 0,1.422 0.299,2.77 0.898,4.043 1.497,3.296 4.941,5.618 8.838,5.618 z m 11.63,38.341 c 1.287,-3.343 2.109,-6.596 3.402,-10.109 -4.418,0 -6.973,-0.146 -11.33,-0.031 -3.445,0 -4.902,1.977 -6.025,4.374 -2.17,5.69 -4.343,11.456 -6.516,17.147 -1.085,2.968 -2.278,5.981 -3.371,8.952 h 11.947 c 2.398,-7.02 4.762,-13.554 7.562,-20.333 z M 94.893,53.172 c -0.311,-0.77 -0.664,-1.52 -1.037,-2.26 -0.223,-0.444 -1.34,-1.927 -1.254,-2.373 0.9,-4.643 1.93,-9.307 2.828,-13.95 0.756,-3.659 -0.803,-5.954 -2.973,-6.853 -2.846,-1.198 -4.572,-1.886 -7.342,-3.084 -1.199,-0.524 -2.398,-1.049 -3.67,-1.572 -3.67,-1.798 -6.143,-2.282 -9.811,0.224 -6.891,4.343 -14.584,9.294 -21.474,13.713 0.9,-2.396 2.298,-5.325 3.199,-7.723 -1.873,-0.672 -3.516,-1.421 -5.389,-2.17 -0.299,-0.15 -0.599,-0.225 -0.898,-0.375 l -0.149,0.375 c -2.138,4.518 -4.911,9.987 -6.56,14.479 -1.092,3.415 2.628,6.088 5.994,4.999 0.075,0 10.525,-4.801 14.792,-6.673 4.793,5.466 9.51,11.008 14.301,16.475 -2.395,1.497 -2.926,1.913 -4.041,5.316 -2.965,8.451 -5.93,16.902 -8.895,25.352 H 74.98 l 7.131,-20.083 c 0.748,0.075 2.18,0.199 3.004,0.199 2.367,0 4.678,0.065 6.824,-1.118 4.618,-2.547 4.659,-8.625 2.954,-12.898 z m -4.612,1.134 h -7.49 l 2.324,-12.356 0.373,-1.871 -0.373,-0.524 -5.244,-7.49 5.244,1.274 2.77,0.599 -3.508,19.329 5.914,0.008 z m -47.177,1.573 c 1.573,0.225 3.22,0.523 4.867,0.824 0.697,0.115 1.35,0.23 2.026,0.348 l 2.269,-7.548 C 50.669,49.15 20.537,43.128 6.784,40.376 l -2.183,7.221 c 2.719,0.642 4.846,1.173 7.575,1.841 -0.824,0.524 -1.571,1.124 -2.394,1.647 1.796,2.021 3.518,4.043 5.316,6.066 3.07,-3.146 6.665,-4.568 10.784,-4.195 7.338,1.199 12.729,5.317 12.58,13.854 0.133,7.967 -7.587,13.511 -13.479,13.703 -3.71,-0.043 -7.113,-2.171 -10.109,-4.194 -1.871,1.424 -3.744,2.848 -5.616,4.194 3.295,4.345 8.088,7.265 16.249,7.189 13.287,-1.344 19.276,-9.361 20.519,-20.518 0.504,-4.746 -0.975,-7.786 -2.922,-11.305 z"
       id="path1131"
       style="fill:url(#linearGradient1719)"
       inkscape:connector-curvature="0" />
  </g>
  <g
     style="opacity:1;stop-opacity:1"
     class="sampleTexts_1"
     transform="matrix(1.0784976,0,0,1.0784976,28.023768,-19.518869)"
     id="g1146">
    <g
       class="logo--name svgLogoName_1 logoNameBox"
       transform="translate(192.88,228.72)"
       fill="url(#textGradient2707590584)"
       id="g1141"
       style="fill:url(#linearGradient1727)">
      <path
         d="m 19.8,-41.16 v 0 q 5.16,0 9,2.25 v 0 0 q 3.84,2.25 5.94,6.42 v 0 0 q 2.1,4.17 2.1,9.81 v 0 4.2 0 q 0,5.64 -2.1,9.81 v 0 0 q -2.1,4.17 -5.94,6.42 v 0 0 Q 24.96,0 19.8,0 V 0 H 5.52 v -41.16 z m 0,5.34 h -8.4 v 30.48 h 8.4 v 0 q 5.34,0 8.25,-3.33 v 0 0 q 2.91,-3.33 2.91,-9.81 v 0 -4.2 0 q 0,-6.36 -2.85,-9.75 v 0 0 q -2.85,-3.39 -8.31,-3.39 z m 51.7,5.16 -11.46,29.46 v 0 Q 58,3.84 56.26,6.51 v 0 0 q -1.74,2.67 -3.54,3.66 v 0 0 q -1.8,0.99 -4.2,0.99 v 0 0 q -2.22,0 -4.2,-0.84 v 0 -4.62 0 q 1.98,0.84 3,0.84 v 0 0 q 2.46,0 4.11,-1.65 v 0 0 q 1.65,-1.65 2.73,-5.19 v 0 L 42.22,-30.66 h 6 l 8.82,22.62 h 0.24 l 8.7,-22.62 z m 34.78,-5.52 v 0 q 0,3.06 -1.62,5.13 v 0 0 q -1.62,2.07 -4.5,2.67 v 0 l -0.12,0.18 v 0 q 3,2.64 3,6.6 v 0 0 q 0,4.32 -3.24,6.96 v 0 0 Q 96.56,-12 90.98,-12 v 0 H 86.9 v 0 q -1.8,0 -3,0.93 v 0 0 q -1.2,0.93 -1.2,2.37 v 0 0 q 0,1.44 1.14,2.28 v 0 0 q 1.14,0.84 3.06,0.84 v 0 h 11.58 v 0 q 3.54,0 5.67,2.22 v 0 0 q 2.13,2.22 2.13,5.64 v 0 0 q 0,4.08 -3.09,6.54 v 0 0 q -3.09,2.46 -8.31,2.46 v 0 H 82.82 v 0 q -2.04,0 -3.75,-1.08 v 0 0 Q 77.36,9.12 76.37,7.47 v 0 0 Q 75.38,5.82 75.38,4.08 v 0 0 q 0,-2.52 1.23,-4.38 v 0 0 q 1.23,-1.86 3.27,-2.76 v 0 0 q -2.76,-1.68 -2.76,-4.98 v 0 0 q 0,-2.16 1.26,-3.72 v 0 0 q 1.26,-1.56 3.54,-2.34 v 0 0 q -4.02,-2.22 -4.02,-7.5 v 0 0 q 0,-4.44 3.27,-7.05 v 0 0 q 3.27,-2.61 9.09,-2.61 v 0 h 0.24 v 0 q 3.36,0 6.12,1.02 v 0 0 q 4.26,-2.1 4.86,-5.94 v 0 z m -15.84,9.42 v 0 q -3.18,0 -5.07,1.23 v 0 0 q -1.89,1.23 -1.89,3.93 v 0 0 q 0,2.7 1.89,3.9 v 0 0 q 1.89,1.2 5.07,1.2 v 0 0 q 3.18,0 5.1,-1.2 v 0 0 q 1.92,-1.2 1.92,-3.9 v 0 0 q 0,-2.7 -1.92,-3.93 v 0 0 q -1.92,-1.23 -5.1,-1.23 z M 96.8,-0.18 H 84.44 v 0 q -1.44,0 -2.46,1.02 v 0 0 Q 80.96,1.86 80.96,3.3 v 0 0 q 0,1.44 1.02,2.46 v 0 0 Q 83,6.78 84.44,6.78 v 0 h 11.58 v 0 q 1.92,0 3.3,-1.11 v 0 0 q 1.38,-1.11 1.38,-2.55 v 0 0 q 0,-1.5 -1.02,-2.4 v 0 0 q -1.02,-0.9 -2.88,-0.9 z m 16.72,-43.02 h 5.64 V 0 h -5.64 z m 29.08,11.94 v 0 q 6.42,0 10.26,3.96 v 0 0 q 3.84,3.96 3.84,10.86 v 0 2.22 0 q 0,6.9 -3.78,10.86 v 0 0 Q 149.14,0.6 142.6,0.6 v 0 0 q -6.54,0 -10.32,-3.96 v 0 0 q -3.78,-3.96 -3.78,-10.86 v 0 -2.22 0 q 0,-6.9 3.84,-10.86 v 0 0 q 3.84,-3.96 10.26,-3.96 z m 0,4.5 v 0 q -4.02,0 -6.24,2.76 v 0 0 q -2.22,2.76 -2.22,8.1 v 0 1.14 0 q 0,5.22 2.19,8.04 v 0 0 q 2.19,2.82 6.27,2.82 v 0 0 q 3.96,0 6.21,-2.79 v 0 0 q 2.25,-2.79 2.25,-8.07 v 0 -1.14 0 q 0,-5.22 -2.19,-8.04 v 0 0 q -2.19,-2.82 -6.27,-2.82 z m 29.8,-13.68 v 9.78 h 7.14 v 4.5 h -7.14 v 18.3 0 q 0,2.16 0.84,3.12 v 0 0 q 0.84,0.96 2.58,0.96 v 0 0 q 1.56,0 3.72,-0.9 v 0 4.2 0 q -2.16,1.08 -5.58,1.08 v 0 0 q -3.54,0 -5.37,-2.1 v 0 0 q -1.83,-2.1 -1.83,-6.66 v 0 -18 h -3.36 v -4.5 h 3.54 l 1.92,-9.78 z"
         id="path1139"
         style="fill:url(#linearGradient1725)"
         inkscape:connector-curvature="0" />
    </g>
    <g
       id=""
       class="logo--name svgSloganText_1 sloganBox"
       transform="translate(194.76,283.94)"
       fill="#ffffff">
      <path
         d="M 3.64,0 H 18.51 V -4.84 H 8.89 v -24.7 H 3.64 Z m 18.25,-4.37 c 0,2.71 2.19,4.89 4.94,4.89 h 4.79 c 2.75,0 4.94,-2.18 4.94,-4.89 v -2.96 h -4.53 v 1.87 c 0,0.78 -0.62,1.56 -1.45,1.56 h -2.5 c -0.83,0 -1.46,-0.78 -1.46,-1.56 v -4.42 h 9.94 v -7.59 c 0,-2.71 -2.19,-4.94 -4.94,-4.94 h -4.79 c -2.75,0 -4.94,2.23 -4.94,4.94 z m 4.73,-8.68 v -3.38 c 0,-0.78 0.63,-1.51 1.46,-1.51 h 2.5 c 0.83,0 1.45,0.73 1.45,1.51 v 3.38 z m 29.7,-4.32 c 0,-2.75 -2.24,-5.04 -5.05,-5.04 h -4.05 c -2.81,0 -5.05,2.29 -5.05,5.04 v 3.17 h 4.53 v -2.28 c 0,-0.73 0.72,-1.46 1.5,-1.46 h 1.88 c 0.83,0 1.4,0.73 1.4,1.46 v 1.45 c 0,0.68 -0.21,1.25 -0.88,1.56 l -6.5,2.55 c -1.46,0.57 -2.34,1.82 -2.34,3.59 v 2.86 c 0,2.7 2.28,4.99 5.04,4.99 h 1.46 c 1.61,0 2.7,-0.94 3.38,-1.61 L 51.9,0 h 4.42 z m -4.84,11.7 c 0,0.89 -0.78,1.77 -1.66,1.77 h -1.98 c -0.88,0 -1.4,-0.78 -1.4,-1.46 v -1.45 c 0,-0.63 0.15,-1.04 0.78,-1.35 l 3.64,-1.51 c 0.36,-0.16 0.57,-0.42 0.62,-0.42 z M 66.98,0 v -15.76 c 0,-0.98 0.78,-1.82 1.71,-1.82 h 2.91 v -4.62 h -1.4 c -1.56,0 -2.81,1.04 -3.33,1.76 l -0.31,-1.45 H 62.04 V 0 Z m 13,0 v -15.96 c 0,-0.94 0.72,-1.82 1.66,-1.82 h 2.03 c 0.83,0 1.45,0.72 1.45,1.56 V 0 h 4.94 v -17.42 c 0,-2.76 -2.18,-4.99 -4.94,-4.99 H 83.2 c -1.61,0 -2.81,1.09 -3.38,1.82 l -0.26,-1.3 H 74.98 V 0 Z m 21.26,0 V -21.89 H 96.3 V 0 Z m -0.05,-25.48 v -4.06 H 96.3 v 4.06 z M 112.48,0 v -15.96 c 0,-0.94 0.72,-1.82 1.66,-1.82 h 2.03 c 0.83,0 1.45,0.72 1.45,1.56 V 0 h 4.94 v -17.42 c 0,-2.76 -2.18,-4.99 -4.94,-4.99 h -1.92 c -1.61,0 -2.81,1.09 -3.38,1.82 l -0.26,-1.3 h -4.58 V 0 Z m 15.02,6.76 c 0,2.81 2.24,5.04 5,5.04 h 4.73 c 2.81,0 4.99,-2.23 4.99,-5.04 V 1.92 c 0,-2.13 -1.2,-3.43 -3.43,-4.26 l -5.51,-2.03 c -0.68,-0.26 -1.25,-0.52 -1.25,-1.3 0,-0.36 0.15,-0.67 0.36,-0.93 0.16,0 0.31,0.05 0.47,0.05 h 3.07 c 2.81,0 4.99,-2.29 4.99,-5.05 v -5.2 c 0,-0.78 -0.36,-1.45 -0.73,-1.71 l 1.67,-0.31 v -3.07 h -9.36 c -2.81,0 -5,2.29 -5,5.04 v 5.25 c 0,1.72 0.84,3.18 2.14,4.11 -0.58,0.63 -0.99,1.46 -0.99,2.45 0,1.76 1.14,2.54 2.39,3.17 l -1.3,1.19 c -1.3,1.25 -2.24,2.19 -2.24,4.16 z m 4.68,-22.72 c 0,-0.73 0.58,-1.46 1.46,-1.46 h 1.14 c 0.89,0 1.46,0.73 1.46,1.46 v 3.95 c 0,0.73 -0.57,1.4 -1.46,1.4 h -1.14 c -0.88,0 -1.46,-0.67 -1.46,-1.4 z m 1.04,23.29 c -0.83,0 -1.5,-0.73 -1.5,-1.56 V 2.96 c 0,-0.83 0.36,-1.19 1.04,-1.87 l 1.3,-1.3 2.6,1.41 c 0.52,0.15 0.88,0.72 0.88,1.24 v 3.33 c 0,0.83 -0.68,1.56 -1.51,1.56 z M 156.78,0 h 5.2 V -12.84 L 169.52,0 h 5.77 l -8.73,-15.03 8.52,-14.51 h -5.4 l -7.7,13.11 v -13.11 h -5.2 z m 21.89,-4.37 c 0,2.71 2.19,4.89 4.89,4.89 h 5.1 c 2.75,0 4.94,-2.18 4.94,-4.89 v -13.1 c 0,-2.71 -2.19,-4.94 -4.94,-4.94 h -5.1 c -2.7,0 -4.89,2.23 -4.89,4.94 z m 4.73,-1.09 v -10.97 c 0,-0.78 0.63,-1.51 1.41,-1.51 h 2.6 c 0.83,0 1.45,0.73 1.45,1.51 v 10.97 c 0,0.78 -0.62,1.56 -1.45,1.56 h -2.6 c -0.78,0 -1.41,-0.78 -1.41,-1.56 z M 204.26,0 v -15.76 c 0,-0.98 0.78,-1.82 1.71,-1.82 h 2.91 v -4.62 h -1.4 c -1.56,0 -2.81,1.04 -3.33,1.76 l -0.31,-1.45 h -4.52 V 0 Z m 8,-4.37 c 0,2.71 2.19,4.89 4.94,4.89 h 4.79 c 2.75,0 4.94,-2.18 4.94,-4.89 v -2.96 h -4.53 v 1.87 c 0,0.78 -0.62,1.56 -1.45,1.56 h -2.5 c -0.83,0 -1.45,-0.78 -1.45,-1.56 v -4.42 h 9.93 v -7.59 c 0,-2.71 -2.19,-4.94 -4.94,-4.94 h -4.79 c -2.75,0 -4.94,2.23 -4.94,4.94 z m 4.74,-8.68 v -3.38 c 0,-0.78 0.62,-1.51 1.45,-1.51 h 2.5 c 0.83,0 1.45,0.73 1.45,1.51 v 3.38 z m 29.69,-4.32 c 0,-2.75 -2.24,-5.04 -5.05,-5.04 h -4.05 c -2.81,0 -5.05,2.29 -5.05,5.04 v 3.17 h 4.53 v -2.28 c 0,-0.73 0.73,-1.46 1.51,-1.46 h 1.87 c 0.83,0 1.4,0.73 1.4,1.46 v 1.45 c 0,0.68 -0.21,1.25 -0.88,1.56 l -6.5,2.55 c -1.46,0.57 -2.34,1.82 -2.34,3.59 v 2.86 c 0,2.7 2.29,4.99 5.04,4.99 h 1.46 c 1.61,0 2.7,-0.94 3.38,-1.61 L 242.27,0 h 4.42 z m -4.84,11.7 c 0,0.89 -0.78,1.77 -1.66,1.77 h -1.98 c -0.88,0 -1.4,-0.78 -1.4,-1.46 v -1.45 c 0,-0.63 0.15,-1.04 0.78,-1.35 l 3.64,-1.51 c 0.36,-0.16 0.57,-0.42 0.62,-0.42 z M 257.4,0 v -15.96 c 0,-0.94 0.73,-1.82 1.66,-1.82 h 2.03 c 0.83,0 1.46,0.72 1.46,1.56 V 0 h 4.94 v -17.42 c 0,-2.76 -2.19,-4.99 -4.94,-4.99 h -1.93 c -1.61,0 -2.8,1.09 -3.38,1.82 l -0.26,-1.3 h -4.57 V 0 Z"
         id="path1143"
         inkscape:connector-curvature="0" />
    </g>
  </g>
</svg>
