<?xml version="1.0" encoding="UTF-8" standalone="no"?>
<svg
   xmlns:dc="http://purl.org/dc/elements/1.1/"
   xmlns:cc="http://creativecommons.org/ns#"
   xmlns:rdf="http://www.w3.org/1999/02/22-rdf-syntax-ns#"
   xmlns:svg="http://www.w3.org/2000/svg"
   xmlns="http://www.w3.org/2000/svg"
   xmlns:xlink="http://www.w3.org/1999/xlink"
   xmlns:sodipodi="http://sodipodi.sourceforge.net/DTD/sodipodi-0.dtd"
   xmlns:inkscape="http://www.inkscape.org/namespaces/inkscape"
   id="svg870"
   class=""
   preserveAspectRatio="xMidYMid meet"
   xml:space="preserve"
   viewBox="0 0 640 480"
   y="0px"
   x="0px"
   width="100%"
   height="100%"
   version="1.1"
   sodipodi:docname="color_logo7.svg"
   inkscape:version="1.0beta1 (32d4812, 2019-09-19)"><sodipodi:namedview
   pagecolor="#ffffff"
   bordercolor="#666666"
   inkscape:document-rotation="0"
   borderopacity="1"
   objecttolerance="10"
   gridtolerance="10"
   guidetolerance="10"
   inkscape:pageopacity="0"
   inkscape:pageshadow="2"
   inkscape:window-width="1670"
   inkscape:window-height="1209"
   id="namedview860"
   showgrid="false"
   inkscape:zoom="1.4"
   inkscape:cx="223.7046"
   inkscape:cy="359.53319"
   inkscape:window-x="0"
   inkscape:window-y="23"
   inkscape:window-maximized="0"
   inkscape:current-layer="svg870" />


  <metadata
   id="metadata874">
    <rdf:RDF>
      <cc:Work
   rdf:about="">
        <dc:format>image/svg+xml</dc:format>


        <dc:type
   rdf:resource="http://purl.org/dc/dcmitype/StillImage" />


        <dc:title></dc:title>


      </cc:Work>


    </rdf:RDF>


  </metadata>


  <defs
   id="defs838">
    <linearGradient
   id="textGradient2707590584">
      <stop
   id="stop833"
   stop-color="#B68648"
   offset="0.05" />


      <stop
   id="stop835"
   stop-color="#FBF3A3"
   offset="0.95" />


    </linearGradient>


    <linearGradient
   gradientUnits="userSpaceOnUse"
   y2="-77.20844"
   x2="100.457"
   y1="-77.20844"
   x1="3.0885742"
   gradientTransform="scale(1.7872324,0.55952432)"
   id="linearGradient882"
   xlink:href="#textGradient2707590584" />


    <linearGradient
   gradientUnits="userSpaceOnUse"
   y2="-77.20844"
   x2="100.457"
   y1="-77.20844"
   x1="3.0885742"
   gradientTransform="scale(1.7872324,0.55952432)"
   id="linearGradient884"
   xlink:href="#textGradient2707590584" />


    <linearGradient
   xlink:href="#textGradient2707590584"
   id="linearGradient863"
   gradientTransform="scale(0.98031164,1.0200838)"
   x1="-50.534138"
   y1="8.8228045"
   x2="97.851784"
   y2="8.8228045"
   gradientUnits="userSpaceOnUse" />


    <linearGradient
   y2="8.8228045"
   x2="97.851784"
   y1="8.8228045"
   x1="-50.534138"
   gradientTransform="matrix(0.90169211,0,0,0.93827273,14.85195,11.536806)"
   gradientUnits="userSpaceOnUse"
   id="linearGradient930"
   xlink:href="#textGradient2707590584" />


    <linearGradient
   y2="8.8228045"
   x2="97.851784"
   y1="8.8228045"
   x1="-50.534138"
   gradientTransform="scale(0.98031164,1.0200838)"
   gradientUnits="userSpaceOnUse"
   id="linearGradient932"
   xlink:href="#textGradient2707590584" />


  
    
    
  
      
    
        
      
          
        </defs>


  <defs
   id="defs845">
    <linearGradient
   id="iconGradient2707590584">
      <stop
   id="stop840"
   stop-color="#B68648"
   offset="0.05" />


      <stop
   id="stop842"
   stop-color="#FBF3A3"
   offset="0.95" />


    </linearGradient>


  </defs>


  

  
  
<rect
   inkscape:export-ydpi="893.67096"
   inkscape:export-xdpi="893.67096"
   inkscape:export-filename="/Volumes/Macos-Ext/Users/larpoux/projmac/dyglot/doc/logo/dyglot/png/color_logo2.png"
   id="rect847"
   fill="#4d2d89"
   height="22.916668%"
   width="17.187534%"
   y="0"
   x="0"
   style="opacity:1;stroke-width:0.198464;stop-opacity:1" />
<path
   d="m 67.104951,37.655434 c 4.88781,0 8.88527,-3.994687 8.88527,-8.886181 0,-4.95956 -3.99746,-8.95425 -8.88527,-8.95425 -3.58355,0 -6.75135,2.134855 -8.12921,5.23458 -0.55096,1.10192 -0.82598,2.410795 -0.82598,3.71967 0,1.307955 0.27502,2.547845 0.82598,3.71875 1.37694,3.031661 4.54474,5.167431 8.12921,5.167431 z m 10.69728,35.266042 c 1.18379,-3.074892 1.93987,-6.067002 3.12917,-9.298252 -4.06369,0 -6.41378,-0.13429 -10.42135,-0.0285 -3.16871,0 -4.50887,1.81845 -5.54181,4.02321 -1.99596,5.233662 -3.9947,10.537222 -5.99342,15.771802 -0.99798,2.72997 -2.0953,5.50132 -3.10065,8.23405 h 10.98887 c 2.20568,-6.457 4.38009,-12.46697 6.95554,-18.70229 z M 102.13466,60.444394 c -0.28606,-0.70825 -0.61075,-1.3981 -0.95383,-2.07875 -0.20512,-0.40839 -1.232529,-1.77245 -1.15343,-2.18268 0.82782,-4.27063 1.77521,-8.56058 2.60119,-12.83121 0.69538,-3.36554 -0.7386,-5.47648 -2.734559,-6.30338 -2.61776,-1.10192 -4.20534,-1.73475 -6.75318,-2.83667 -1.10285,-0.481972 -2.20569,-0.964867 -3.37568,-1.445922 -3.37567,-1.6538 -5.65034,-2.098983 -9.02417,0.206035 -6.33835,3.994687 -13.41438,8.548617 -19.75182,12.613217 0.82783,-2.20384 2.11371,-4.89794 2.94245,-7.10362 -1.72278,-0.6181 -3.23403,-1.30703 -4.95681,-1.99596 -0.27502,-0.13797 -0.55096,-0.20696 -0.82598,-0.34493 l -0.13705,0.34493 c -1.96654,4.15565 -4.51714,9.18604 -6.0339,13.31778 -1.00442,3.14111 2.41724,5.59974 5.51329,4.59808 0.069,0 9.68091,-4.41596 13.6057,-6.13783 4.40861,5.02763 8.74731,10.12516 13.15408,15.1537 -2.20293,1.37694 -2.69134,1.75958 -3.71692,4.88966 -2.72721,7.773222 -5.45442,15.546452 -8.18163,23.318762 h 11.46625 l 6.5591,-18.47234 c 0.68801,0.069 2.00516,0.18304 2.76309,0.18304 2.17716,0 4.30282,0.0598 6.27672,-1.02833 4.247649,-2.342732 4.285359,-7.933282 2.717089,-11.863582 z m -4.242119,1.04305 h -6.88932 l 2.13763,-11.36504 0.34308,-1.72095 -0.34308,-0.48197 -4.82344,-6.8893 4.82344,1.17182 2.54784,0.55096 -3.22666,17.77881 5.43971,0.007 z m -40.70581,11.845182 c -152.249028,148.452064 -76.124509,74.226034 0,0 z"
   id="path18"
   style="clip-rule:evenodd;opacity:1;fill:url(#linearGradient930);fill-rule:evenodd;stroke-width:0.9198;stop-opacity:1"
   inkscape:connector-curvature="0" />
<text
   transform="scale(1.0071082,0.99294197)"
   id="text47"
   y="89.480812"
   x="1.7328562"
   style="font-style:normal;font-weight:normal;font-size:61.0924px;line-height:1.25;font-family:sans-serif;letter-spacing:0px;word-spacing:0px;opacity:1;fill:#e8d68b;fill-opacity:1;stroke:none;stroke-width:1.52731;stop-opacity:1"
   xml:space="preserve"><tspan
     style="stroke-width:1.52731"
     y="89.480812"
     x="1.7328562"
     id="tspan45">한</tspan></text>


  
</svg>
