<?xml version="1.0" encoding="UTF-8" standalone="no"?>
<svg
   xmlns:dc="http://purl.org/dc/elements/1.1/"
   xmlns:cc="http://creativecommons.org/ns#"
   xmlns:rdf="http://www.w3.org/1999/02/22-rdf-syntax-ns#"
   xmlns:svg="http://www.w3.org/2000/svg"
   xmlns="http://www.w3.org/2000/svg"
   xmlns:xlink="http://www.w3.org/1999/xlink"
   xmlns:sodipodi="http://sodipodi.sourceforge.net/DTD/sodipodi-0.dtd"
   xmlns:inkscape="http://www.inkscape.org/namespaces/inkscape"
   inkscape:version="1.0beta1 (32d4812, 2019-09-19)"
   sodipodi:docname="color_logo6.svg"
   version="1.1"
   height="100%"
   width="100%"
   x="0px"
   y="0px"
   viewBox="0 0 640 480"
   xml:space="preserve"
   preserveAspectRatio="xMidYMid meet"
   class=""
   id="svg870"><sodipodi:namedview
   inkscape:current-layer="svg870"
   inkscape:window-maximized="0"
   inkscape:window-y="121"
   inkscape:window-x="647"
   inkscape:cy="262.17831"
   inkscape:cx="269.66886"
   inkscape:zoom="1.979899"
   showgrid="false"
   id="namedview860"
   inkscape:window-height="1209"
   inkscape:window-width="1635"
   inkscape:pageshadow="2"
   inkscape:pageopacity="0"
   guidetolerance="10"
   gridtolerance="10"
   objecttolerance="10"
   borderopacity="1"
   inkscape:document-rotation="0"
   bordercolor="#666666"
   pagecolor="#ffffff" />

  <metadata
   id="metadata874">
    <rdf:RDF>
      <cc:Work
   rdf:about="">
        <dc:format>image/svg+xml</dc:format>

        <dc:type
   rdf:resource="http://purl.org/dc/dcmitype/StillImage" />

        <dc:title></dc:title>

      </cc:Work>

    </rdf:RDF>

  </metadata>

  <defs
   id="defs838">
    <linearGradient
   id="textGradient2707590584">
      <stop
   offset="0.05"
   stop-color="#B68648"
   id="stop833" />

      <stop
   offset="0.95"
   stop-color="#FBF3A3"
   id="stop835" />

    </linearGradient>

    <linearGradient
   xlink:href="#textGradient2707590584"
   id="linearGradient882"
   gradientTransform="scale(1.7872324,0.55952432)"
   x1="3.0885742"
   y1="-77.20844"
   x2="100.457"
   y2="-77.20844"
   gradientUnits="userSpaceOnUse" />

    <linearGradient
   xlink:href="#textGradient2707590584"
   id="linearGradient884"
   gradientTransform="scale(1.7872324,0.55952432)"
   x1="3.0885742"
   y1="-77.20844"
   x2="100.457"
   y2="-77.20844"
   gradientUnits="userSpaceOnUse" />

    <linearGradient
   gradientUnits="userSpaceOnUse"
   y2="8.8228045"
   x2="97.851784"
   y1="8.8228045"
   x1="-50.534138"
   gradientTransform="scale(0.98031164,1.0200838)"
   id="linearGradient863"
   xlink:href="#textGradient2707590584" />

    <linearGradient
   xlink:href="#textGradient2707590584"
   id="linearGradient930"
   gradientUnits="userSpaceOnUse"
   gradientTransform="matrix(0.90169031,0,0,0.93827273,60.489427,28.679663)"
   x1="-50.534138"
   y1="8.8228045"
   x2="97.851784"
   y2="8.8228045" />

    <linearGradient
   xlink:href="#textGradient2707590584"
   id="linearGradient932"
   gradientUnits="userSpaceOnUse"
   gradientTransform="scale(0.98031164,1.0200838)"
   x1="-50.534138"
   y1="8.8228045"
   x2="97.851784"
   y2="8.8228045" />

  
    
    
  
      
    
        
      
          
        <linearGradient
   gradientUnits="userSpaceOnUse"
   y2="8.8228045"
   x2="97.851784"
   y1="8.8228045"
   x1="-50.534138"
   gradientTransform="scale(0.98031164,1.0200838)"
   id="linearGradient863-8"
   xlink:href="#textGradient2707590584" />
<linearGradient
   y2="-77.20844"
   x2="100.457"
   y1="-77.20844"
   x1="3.0885742"
   gradientTransform="scale(1.7872324,0.55952432)"
   gradientUnits="userSpaceOnUse"
   id="linearGradient1997"
   xlink:href="#textGradient2707590584"
   inkscape:collect="always" />
</defs>

  <defs
   id="defs845">
    <linearGradient
   id="iconGradient2707590584">
      <stop
   offset="0.05"
   stop-color="#B68648"
   id="stop840" />

      <stop
   offset="0.95"
   stop-color="#FBF3A3"
   id="stop842" />

    </linearGradient>

  </defs>

  <rect
   inkscape:export-ydpi="327.67999"
   inkscape:export-xdpi="327.67999"
   inkscape:export-filename="/Volumes/Macos-Ext/Users/larpoux/projmac/dyglot/doc/logo/dyglot/png/banner.png"
   style="stroke-width:0.378368"
   x="45.456863"
   y="19.192898"
   width="46.875%"
   height="30.541668%"
   fill="#4d2d89"
   id="rect847" />

  
  
  
<g
   transform="translate(0,9.0913729)"
   id="g2024">
  <g
     id="g2013">
    <path
       inkscape:connector-curvature="0"
       style="clip-rule:evenodd;opacity:1;fill:url(#linearGradient930);fill-rule:evenodd;stroke-width:0.9198;stop-opacity:1"
       id="path18"
       d="m 112.74232,54.798291 c 4.88781,0 8.88526,-3.994687 8.88526,-8.886181 0,-4.95956 -3.99745,-8.95425 -8.88526,-8.95425 -3.58354,0 -6.75133,2.134855 -8.12919,5.23458 -0.55096,1.10192 -0.82598,2.410795 -0.82598,3.71967 0,1.307955 0.27502,2.547845 0.82598,3.71875 1.37694,3.031661 4.54473,5.167431 8.12919,5.167431 z m 10.69727,35.26604 c 1.18378,-3.07489 1.93986,-6.067 3.12916,-9.29825 -4.06368,0 -6.41377,-0.13429 -10.42133,-0.0285 -3.16871,0 -4.50886,1.81845 -5.5418,4.02321 -1.99596,5.23366 -3.99469,10.53722 -5.99341,15.771799 -0.99798,2.72997 -2.0953,5.50132 -3.10064,8.23405 h 10.98884 c 2.20568,-6.457 4.38009,-12.466969 6.95553,-18.702289 z m 24.33238,-12.47708 c -0.28606,-0.70825 -0.61075,-1.3981 -0.95383,-2.07875 -0.20512,-0.40839 -1.23253,-1.77245 -1.15343,-2.18268 0.82782,-4.27063 1.77521,-8.56058 2.60119,-12.83121 0.69537,-3.36554 -0.7386,-5.47648 -2.73456,-6.30338 -2.61775,-1.10192 -4.20533,-1.73475 -6.75317,-2.83667 -1.10284,-0.481972 -2.20568,-0.964867 -3.37567,-1.445922 -3.37566,-1.6538 -5.65033,-2.098983 -9.02415,0.206035 -6.33834,3.994687 -13.41436,8.548617 -19.75178,12.613217 0.82782,-2.20384 2.1137,-4.89794 2.94244,-7.10362 -1.72278,-0.6181 -3.23402,-1.30703 -4.9568,-1.99596 -0.27502,-0.13797 -0.55096,-0.20696 -0.82598,-0.34493 l -0.13705,0.34493 c -1.96653,4.15565 -4.517133,9.18604 -6.033883,13.31778 -1.00442,3.14111 2.417233,5.59974 5.513273,4.59808 0.069,0 9.68089,-4.41596 13.60568,-6.13783 4.4086,5.02763 8.74729,10.12516 13.15405,15.1537 -2.20292,1.37694 -2.69133,1.75958 -3.71691,4.88966 -2.7272,7.77322 -5.45441,15.546449 -8.18161,23.318759 H 129.456 l 6.55909,-18.472339 c 0.68801,0.069 2.00516,0.18304 2.76308,0.18304 2.17716,0 4.30282,0.0598 6.27671,-1.02833 4.24764,-2.34273 4.28535,-7.93328 2.71709,-11.86358 z m -4.24212,1.04305 h -6.8893 l 2.13762,-11.36504 0.34308,-1.72095 -0.34308,-0.48197 -4.82343,-6.8893 4.82343,1.17182 2.54784,0.55096 -3.22665,17.77881 5.43969,0.007 z m -40.70573,11.84518 c -152.24872,148.452059 -76.124353,74.226029 0,0 z" />
    <text
       xml:space="preserve"
       style="font-style:normal;font-weight:normal;font-size:61.0924px;line-height:1.25;font-family:sans-serif;letter-spacing:0px;word-spacing:0px;opacity:1;fill:#e8d68b;fill-opacity:1;stroke:none;stroke-width:1.52731;stop-opacity:1"
       x="47.048298"
       y="106.74541"
       id="text47"
       transform="scale(1.0071072,0.99294296)"><tspan
         id="tspan45"
         x="47.048298"
         y="106.74541"
         style="stroke-width:1.52731">한</tspan></text>
  </g>
  <g
     style="opacity:1;stop-opacity:1"
     id="g1802"
     transform="translate(38.449075,29.034843)">
  <g
   class="logo--name svgLogoName_1 logoNameBox"
   transform="matrix(1.0784976,0,0,1.0784976,109.93558,50.572713)"
   fill="url(#textGradient2707590584)"
   id="g859"
   style="opacity:1;fill:url(#linearGradient882);stop-opacity:1">
    <path
   d="m 19.8,-41.16 v 0 q 5.16,0 9,2.25 v 0 0 q 3.84,2.25 5.94,6.42 v 0 0 q 2.1,4.17 2.1,9.81 v 0 4.2 0 q 0,5.64 -2.1,9.81 v 0 0 q -2.1,4.17 -5.94,6.42 v 0 0 Q 24.96,0 19.8,0 V 0 H 5.52 v -41.16 z m 0,5.34 h -8.4 v 30.48 h 8.4 v 0 q 5.34,0 8.25,-3.33 v 0 0 q 2.91,-3.33 2.91,-9.81 v 0 -4.2 0 q 0,-6.36 -2.85,-9.75 v 0 0 q -2.85,-3.39 -8.31,-3.39 z m 51.7,5.16 -11.46,29.46 v 0 Q 58,3.84 56.26,6.51 v 0 0 q -1.74,2.67 -3.54,3.66 v 0 0 q -1.8,0.99 -4.2,0.99 v 0 0 q -2.22,0 -4.2,-0.84 v 0 -4.62 0 q 1.98,0.84 3,0.84 v 0 0 q 2.46,0 4.11,-1.65 v 0 0 q 1.65,-1.65 2.73,-5.19 v 0 L 42.22,-30.66 h 6 l 8.82,22.62 h 0.24 l 8.7,-22.62 z m 34.78,-5.52 v 0 q 0,3.06 -1.62,5.13 v 0 0 q -1.62,2.07 -4.5,2.67 v 0 l -0.12,0.18 v 0 q 3,2.64 3,6.6 v 0 0 q 0,4.32 -3.24,6.96 v 0 0 Q 96.56,-12 90.98,-12 v 0 H 86.9 v 0 q -1.8,0 -3,0.93 v 0 0 q -1.2,0.93 -1.2,2.37 v 0 0 q 0,1.44 1.14,2.28 v 0 0 q 1.14,0.84 3.06,0.84 v 0 h 11.58 v 0 q 3.54,0 5.67,2.22 v 0 0 q 2.13,2.22 2.13,5.64 v 0 0 q 0,4.08 -3.09,6.54 v 0 0 q -3.09,2.46 -8.31,2.46 v 0 H 82.82 v 0 q -2.04,0 -3.75,-1.08 v 0 0 Q 77.36,9.12 76.37,7.47 v 0 0 Q 75.38,5.82 75.38,4.08 v 0 0 q 0,-2.52 1.23,-4.38 v 0 0 q 1.23,-1.86 3.27,-2.76 v 0 0 q -2.76,-1.68 -2.76,-4.98 v 0 0 q 0,-2.16 1.26,-3.72 v 0 0 q 1.26,-1.56 3.54,-2.34 v 0 0 q -4.02,-2.22 -4.02,-7.5 v 0 0 q 0,-4.44 3.27,-7.05 v 0 0 q 3.27,-2.61 9.09,-2.61 v 0 h 0.24 v 0 q 3.36,0 6.12,1.02 v 0 0 q 4.26,-2.1 4.86,-5.94 v 0 z m -15.84,9.42 v 0 q -3.18,0 -5.07,1.23 v 0 0 q -1.89,1.23 -1.89,3.93 v 0 0 q 0,2.7 1.89,3.9 v 0 0 q 1.89,1.2 5.07,1.2 v 0 0 q 3.18,0 5.1,-1.2 v 0 0 q 1.92,-1.2 1.92,-3.9 v 0 0 q 0,-2.7 -1.92,-3.93 v 0 0 q -1.92,-1.23 -5.1,-1.23 z M 96.8,-0.18 H 84.44 v 0 q -1.44,0 -2.46,1.02 v 0 0 Q 80.96,1.86 80.96,3.3 v 0 0 q 0,1.44 1.02,2.46 v 0 0 Q 83,6.78 84.44,6.78 v 0 h 11.58 v 0 q 1.92,0 3.3,-1.11 v 0 0 q 1.38,-1.11 1.38,-2.55 v 0 0 q 0,-1.5 -1.02,-2.4 v 0 0 q -1.02,-0.9 -2.88,-0.9 z m 16.72,-43.02 h 5.64 V 0 h -5.64 z m 29.08,11.94 v 0 q 6.42,0 10.26,3.96 v 0 0 q 3.84,3.96 3.84,10.86 v 0 2.22 0 q 0,6.9 -3.78,10.86 v 0 0 Q 149.14,0.6 142.6,0.6 v 0 0 q -6.54,0 -10.32,-3.96 v 0 0 q -3.78,-3.96 -3.78,-10.86 v 0 -2.22 0 q 0,-6.9 3.84,-10.86 v 0 0 q 3.84,-3.96 10.26,-3.96 z m 0,4.5 v 0 q -4.02,0 -6.24,2.76 v 0 0 q -2.22,2.76 -2.22,8.1 v 0 1.14 0 q 0,5.22 2.19,8.04 v 0 0 q 2.19,2.82 6.27,2.82 v 0 0 q 3.96,0 6.21,-2.79 v 0 0 q 2.25,-2.79 2.25,-8.07 v 0 -1.14 0 q 0,-5.22 -2.19,-8.04 v 0 0 q -2.19,-2.82 -6.27,-2.82 z m 29.8,-13.68 v 9.78 h 7.14 v 4.5 h -7.14 v 18.3 0 q 0,2.16 0.84,3.12 v 0 0 q 0.84,0.96 2.58,0.96 v 0 0 q 1.56,0 3.72,-0.9 v 0 4.2 0 q -2.16,1.08 -5.58,1.08 v 0 0 q -3.54,0 -5.37,-2.1 v 0 0 q -1.83,-2.1 -1.83,-6.66 v 0 -18 h -3.36 v -4.5 h 3.54 l 1.92,-9.78 z"
   id="path857"
   style="fill:url(#linearGradient1997)"
   inkscape:connector-curvature="0" />


  </g>

  <text
   id="text956"
   y="81.768898"
   x="133.41754"
   style="font-style:normal;font-variant:normal;font-weight:normal;font-stretch:normal;font-size:21.3333px;line-height:1.25;font-family:Kefa;-inkscape-font-specification:'Kefa Normal';font-variant-ligatures:normal;font-variant-caps:normal;font-variant-numeric:normal;font-variant-east-asian:normal;opacity:1;fill:#ffffff;fill-opacity:1;stroke:none;stop-opacity:1"
   xml:space="preserve"><tspan
     y="81.768898"
     x="133.41754"
     id="tspan954">Learning Korean</tspan></text>

</g>
</g>
</svg>
